<svg viewBox="0 0 400 120" xmlns="http://www.w3.org/2000/svg">
  <defs>
    <!-- Chrome gradient effect -->
    <linearGradient id="chromeGradient" x1="0%" y1="0%" x2="100%" y2="100%">
      <stop offset="0%" style="stop-color:#f8f9fa;stop-opacity:1" />
      <stop offset="25%" style="stop-color:#dee2e6;stop-opacity:1" />
      <stop offset="50%" style="stop-color:#adb5bd;stop-opacity:1" />
      <stop offset="75%" style="stop-color:#6c757d;stop-opacity:1" />
      <stop offset="100%" style="stop-color:#495057;stop-opacity:1" />
    </linearGradient>
    
    <!-- Subtle shadow -->
    <filter id="subtleShadow">
      <feDropShadow dx="1" dy="1" stdDeviation="1" flood-opacity="0.2"/>
    </filter>
  </defs>
  
  <!-- Coupé script path (elegant flowing letters) -->
  <path d="M 50 80 Q 30 60 35 40 Q 40 30 55 35 Q 70 40 80 50 Q 90 60 85 75 Q 80 85 65 80 Q 50 75 45 85 Q 40 95 50 90" 
        fill="url(#chromeGradient)" 
        filter="url(#subtleShadow)"
        stroke="#495057" 
        stroke-width="0.5"/>
        
  <!-- o -->
  <circle cx="110" cy="65" r="15" 
          fill="url(#chromeGradient)" 
          filter="url(#subtleShadow)"
          stroke="#495057" 
          stroke-width="0.5"/>
  <circle cx="110" cy="65" r="8" fill="white"/>
  
  <!-- u -->
  <path d="M 140 50 Q 140 75 155 75 Q 170 75 170 50 L 170 45 Q 175 40 180 45 L 180 50 Q 180 85 155 85 Q 130 85 130 50 L 130 45 Q 135 40 140 45 Z" 
        fill="url(#chromeGradient)" 
        filter="url(#subtleShadow)"
        stroke="#495057" 
        stroke-width="0.5"/>
        
  <!-- p -->
  <path d="M 200 45 L 200 90 Q 205 95 210 90 L 210 75 Q 225 75 235 65 Q 245 55 235 45 Q 225 35 210 35 L 200 35 Q 195 40 200 45 Z M 210 45 Q 220 45 225 55 Q 220 65 210 65 Z" 
        fill="url(#chromeGradient)" 
        filter="url(#subtleShadow)"
        stroke="#495057" 
        stroke-width="0.5"/>
        
  <!-- é -->
  <circle cx="270" cy="65" r="15" 
          fill="url(#chromeGradient)" 
          filter="url(#subtleShadow)"
          stroke="#495057" 
          stroke-width="0.5"/>
  <circle cx="270" cy="65" r="8" fill="white"/>
  <path d="M 265 35 L 275 25 Q 280 30 275 35 Z" 
        fill="url(#chromeGradient)" 
        filter="url(#subtleShadow)"/>
        
  <!-- Flowing underline accent -->
  <path d="M 40 95 Q 120 90 200 95 Q 280 100 320 95" 
        fill="none" 
        stroke="url(#chromeGradient)" 
        stroke-width="1.5" 
        opacity="0.6"/>
</svg>
